<?xml version="1.0" encoding="UTF-8"?>
<!DOCTYPE svg PUBLIC "-//W3C//DTD SVG 1.1//EN" "http://www.w3.org/Graphics/SVG/1.1/DTD/svg11.dtd">
<svg xmlns="http://www.w3.org/2000/svg" version="1.1" width="2828px" height="508px" style="shape-rendering:geometricPrecision; text-rendering:geometricPrecision; image-rendering:optimizeQuality; fill-rule:evenodd; clip-rule:evenodd" xmlns:xlink="http://www.w3.org/1999/xlink">
<g><path style="opacity:0.984" fill="#fafafa" d="M 308.5,-0.5 C 316.167,-0.5 323.833,-0.5 331.5,-0.5C 356.887,3.37234 376.72,16.039 391,37.5C 393.219,41.2707 394.885,45.2707 396,49.5C 396.468,59.3663 391.968,62.533 382.5,59C 360.499,41.2495 335.499,34.9162 307.5,40C 281.53,44.7679 257.53,54.4346 235.5,69C 189.915,99.2478 150.748,136.414 118,180.5C 95.8883,210.321 76.555,241.987 60,275.5C 49.359,298.09 42.359,321.756 39,346.5C 36.9725,366.309 39.9725,385.309 48,403.5C 49.3273,411.836 45.8273,415.003 37.5,413C 22.7734,404.939 12.2734,393.105 6,377.5C 3.18769,370.23 1.02103,362.896 -0.5,355.5C -0.5,347.167 -0.5,338.833 -0.5,330.5C 4.00174,296.832 14.8351,265.165 32,235.5C 43.8341,215.828 56.1674,196.495 69,177.5C 84.3767,159.792 99.3767,141.792 114,123.5C 131.221,106.279 148.387,89.1126 165.5,72C 200.324,42.7433 239.324,20.41 282.5,5C 291.237,2.82092 299.903,0.98759 308.5,-0.5 Z"/></g>
<g><path style="opacity:0.993" fill="#fafafa" d="M 114.5,507.5 C 108.5,507.5 102.5,507.5 96.5,507.5C 90.9794,507.333 85.9794,505.5 81.5,502C 65.0251,485.192 48.1918,468.692 31,452.5C 27.0223,448.709 24.189,444.209 22.5,439C 23.0779,437.189 23.5779,435.355 24,433.5C 30.9188,432.552 37.9188,431.885 45,431.5C 85.218,435.071 122.718,426.571 157.5,406C 188.75,389.55 217.75,369.883 244.5,347C 261.972,330.529 279.138,313.696 296,296.5C 312.333,276.167 328.667,255.833 345,235.5C 367.62,202.27 386.62,166.936 402,129.5C 413.111,96.9401 418.945,63.4401 419.5,29C 420.096,25.093 422.429,23.593 426.5,24.5C 430.338,24.2538 433.672,25.4205 436.5,28C 451.667,44.5 466.833,61 482,77.5C 483.197,80.0891 484.197,82.7558 485,85.5C 486.364,104.977 485.364,124.31 482,143.5C 471.052,193.379 451.385,239.379 423,281.5C 375.5,357 314,418.5 238.5,466C 210.65,482.619 180.983,494.952 149.5,503C 137.799,505.42 126.133,506.92 114.5,507.5 Z"/></g>
<g><path style="opacity:0.985" fill="#fafafa" d="M 2320.5,63.5 C 2333.68,62.2355 2346.01,64.7355 2357.5,71C 2367.08,80.6564 2370.24,92.1564 2367,105.5C 2361.81,118.861 2351.98,126.028 2337.5,127C 2326.47,128.392 2315.8,127.058 2305.5,123C 2296.65,119.477 2291.48,112.977 2290,103.5C 2287.26,80.1002 2297.42,66.7669 2320.5,63.5 Z"/></g>
<g><path style="opacity:0.985" fill="#fafafa" d="M 692.5,101.5 C 736.835,101.333 781.168,101.5 825.5,102C 853.499,102.556 878.833,110.889 901.5,127C 924.598,148.937 935.598,175.937 934.5,208C 935.17,254.024 914.17,285.358 871.5,302C 852.053,308.623 832.053,312.289 811.5,313C 793.503,313.5 775.503,313.667 757.5,313.5C 757.5,341.167 757.5,368.833 757.5,396.5C 735.833,396.5 714.167,396.5 692.5,396.5C 692.5,298.167 692.5,199.833 692.5,101.5 Z M 757.5,151.5 C 777.836,151.333 798.169,151.5 818.5,152C 852.047,154.713 868.714,172.879 868.5,206.5C 870.244,233.532 858.244,251.032 832.5,259C 826.925,260.515 821.258,261.515 815.5,262C 796.17,262.5 776.836,262.667 757.5,262.5C 757.5,225.5 757.5,188.5 757.5,151.5 Z"/></g>
<g><path style="opacity:0.989" fill="#fafafa" d="M 1042.5,155.5 C 1062.96,154.458 1082.96,156.958 1102.5,163C 1133.33,176.799 1152.16,200.299 1159,233.5C 1162.99,252.628 1164.49,271.961 1163.5,291.5C 1109.16,292.015 1054.83,292.681 1000.5,293.5C 1002.77,335.941 1025.11,356.107 1067.5,354C 1089.82,351.506 1103.49,339.34 1108.5,317.5C 1126.85,321.171 1145.19,325.005 1163.5,329C 1164.43,329.388 1165.09,330.055 1165.5,331C 1155.44,369.057 1131.11,392.057 1092.5,400C 1059.47,405.898 1027.47,402.564 996.5,390C 964.63,373.792 945.797,347.959 940,312.5C 936.711,292.504 936.711,272.504 940,252.5C 946.196,212.206 967.363,183.039 1003.5,165C 1016.28,160.35 1029.28,157.183 1042.5,155.5 Z M 1048.5,206.5 C 1082.89,204.896 1101.23,221.229 1103.5,255.5C 1069.83,255.846 1036.17,256.18 1002.5,256.5C 1006.56,229.12 1021.89,212.453 1048.5,206.5 Z"/></g>
<g><path style="opacity:0.992" fill="#fafafa" d="M 1315.5,155.5 C 1365.29,152.136 1395.46,174.803 1406,223.5C 1407.89,232.08 1409.23,240.747 1410,249.5C 1411.39,298.487 1411.89,347.487 1411.5,396.5C 1389.5,396.5 1367.5,396.5 1345.5,396.5C 1345.67,357.165 1345.5,317.832 1345,278.5C 1345.5,259.456 1341.5,241.456 1333,224.5C 1320.69,210.364 1305.52,206.197 1287.5,212C 1276.89,215.941 1268.73,222.775 1263,232.5C 1255.58,245.523 1251.24,259.523 1250,274.5C 1249.5,315.165 1249.33,355.832 1249.5,396.5C 1227.5,396.5 1205.5,396.5 1183.5,396.5C 1183.5,318.167 1183.5,239.833 1183.5,161.5C 1201.5,161.5 1219.5,161.5 1237.5,161.5C 1237.5,184.833 1237.5,208.167 1237.5,231.5C 1240.17,231.5 1242.83,231.5 1245.5,231.5C 1249.02,208.3 1259.02,188.467 1275.5,172C 1287.25,162.477 1300.58,156.977 1315.5,155.5 Z"/></g>
<g><path style="opacity:0.991" fill="#fafafa" d="M 1571.5,155.5 C 1620.01,151.655 1649.84,173.321 1661,220.5C 1663.51,231.711 1665.17,243.044 1666,254.5C 1666.5,301.832 1666.67,349.165 1666.5,396.5C 1644.5,396.5 1622.5,396.5 1600.5,396.5C 1600.67,352.499 1600.5,308.499 1600,264.5C 1599.17,250.678 1595.5,237.678 1589,225.5C 1581.59,215.045 1571.43,209.711 1558.5,209.5C 1540.47,209.931 1526.97,217.931 1518,233.5C 1509.77,248.771 1505.43,265.105 1505,282.5C 1504.5,320.499 1504.33,358.499 1504.5,396.5C 1482.5,396.5 1460.5,396.5 1438.5,396.5C 1438.5,318.167 1438.5,239.833 1438.5,161.5C 1456.5,161.5 1474.5,161.5 1492.5,161.5C 1492.5,184.833 1492.5,208.167 1492.5,231.5C 1495.45,231.777 1498.28,231.444 1501,230.5C 1504.98,206.552 1515.81,186.386 1533.5,170C 1544.85,161.505 1557.51,156.672 1571.5,155.5 Z"/></g>
<g><path style="opacity:0.988" fill="#fafafa" d="M 2468.5,155.5 C 2491.28,154.178 2513.62,156.678 2535.5,163C 2558,171.173 2574.5,186.006 2585,207.5C 2586.85,211.708 2587.85,216.041 2588,220.5C 2570.67,227 2553.17,233 2535.5,238.5C 2534.53,229.401 2530.53,221.901 2523.5,216C 2508.22,205.282 2491.22,201.282 2472.5,204C 2462.01,204.833 2453.17,208.999 2446,216.5C 2441.49,225.33 2442.99,232.83 2450.5,239C 2454.39,242.111 2458.72,244.444 2463.5,246C 2487.47,251.793 2511.47,257.46 2535.5,263C 2554.36,268.667 2570.52,278.5 2584,292.5C 2592.81,307.325 2595.81,323.325 2593,340.5C 2588.78,362.047 2576.95,377.88 2557.5,388C 2529.76,400.095 2500.76,404.761 2470.5,402C 2446.44,401.201 2424.44,394.201 2404.5,381C 2396.55,374.054 2389.71,366.221 2384,357.5C 2381.43,351.109 2379.26,344.609 2377.5,338C 2394.31,330.594 2411.31,323.761 2428.5,317.5C 2428.76,321.44 2429.92,325.107 2432,328.5C 2447.11,347.498 2466.94,356.164 2491.5,354.5C 2503.54,355.081 2514.87,352.581 2525.5,347C 2535.38,337.946 2536.05,328.279 2527.5,318C 2521.15,314.55 2514.49,311.884 2507.5,310C 2487.81,305.462 2468.14,300.795 2448.5,296C 2427.25,291.132 2409.09,280.965 2394,265.5C 2383.47,250.319 2379.8,233.653 2383,215.5C 2388.51,191.026 2403.01,174.193 2426.5,165C 2440.28,160.215 2454.28,157.048 2468.5,155.5 Z"/></g>
<g><path style="opacity:0.989" fill="#fafafa" d="M 2827.5,329.5 C 2827.5,330.833 2827.5,332.167 2827.5,333.5C 2816.72,370.271 2792.38,392.438 2754.5,400C 2721.47,405.898 2689.47,402.564 2658.5,390C 2623.42,371.534 2604.25,342.367 2601,302.5C 2598.89,278.461 2600.89,254.794 2607,231.5C 2626.23,180.798 2663.06,155.464 2717.5,155.5C 2783.09,157.251 2818.92,190.918 2825,256.5C 2826.05,268.144 2826.55,279.811 2826.5,291.5C 2771.83,292.007 2717.16,292.674 2662.5,293.5C 2664.79,335.964 2687.13,356.131 2729.5,354C 2751.82,351.514 2765.48,339.347 2770.5,317.5C 2789.56,321.245 2808.56,325.245 2827.5,329.5 Z M 2710.5,206.5 C 2744.9,204.906 2763.24,221.239 2765.5,255.5C 2731.83,255.846 2698.17,256.18 2664.5,256.5C 2667.33,238.993 2675.66,224.826 2689.5,214C 2696.29,210.571 2703.29,208.071 2710.5,206.5 Z"/></g>
<g><path style="opacity:0.986" fill="#fafafa" d="M 1692.5,161.5 C 1714.17,161.5 1735.83,161.5 1757.5,161.5C 1757.33,195.502 1757.5,229.502 1758,263.5C 1758.66,278.485 1762,292.818 1768,306.5C 1780.74,322.556 1796.24,325.722 1814.5,316C 1825.32,306.53 1832.16,294.696 1835,280.5C 1837.64,271.001 1839.31,261.334 1840,251.5C 1840.5,221.502 1840.67,191.502 1840.5,161.5C 1862.17,161.5 1883.83,161.5 1905.5,161.5C 1905.96,228.185 1905.46,294.851 1904,361.5C 1896.28,443.889 1851.11,482.389 1768.5,477C 1745.35,475.712 1723.35,470.045 1702.5,460C 1695.89,456.111 1689.72,451.611 1684,446.5C 1689.18,427.62 1695.18,408.953 1702,390.5C 1724.33,409.649 1750.33,419.649 1780,420.5C 1816.05,420.433 1838.71,403.1 1848,368.5C 1850.6,358.32 1852.26,347.987 1853,337.5C 1853.88,322.164 1854.71,306.831 1855.5,291.5C 1852.75,291.187 1850.09,291.52 1847.5,292.5C 1844.41,316.322 1835.58,337.656 1821,356.5C 1807.38,369.99 1790.88,376.323 1771.5,375.5C 1740.29,376.826 1718.12,363.492 1705,335.5C 1697.68,317.232 1693.68,298.232 1693,278.5C 1692.5,239.501 1692.33,200.501 1692.5,161.5 Z"/></g>
<g><path style="opacity:0.987" fill="#fafafa" d="M 1914.5,161.5 C 1937.17,161.5 1959.83,161.5 1982.5,161.5C 1993.01,222.212 2003.84,282.878 2015,343.5C 2017.38,344.435 2019.88,344.768 2022.5,344.5C 2035.14,283.807 2047.97,223.141 2061,162.5C 2087.09,161.505 2113.26,161.172 2139.5,161.5C 2152.99,222.469 2166.33,283.469 2179.5,344.5C 2182.5,344.5 2185.5,344.5 2188.5,344.5C 2198.68,283.789 2209.18,223.123 2220,162.5C 2242.09,161.34 2264.26,161.173 2286.5,162C 2266.62,240.017 2247.29,318.184 2228.5,396.5C 2198.26,396.829 2168.09,396.495 2138,395.5C 2125.97,335.191 2114.14,274.858 2102.5,214.5C 2099.88,214.232 2097.38,214.565 2095,215.5C 2083.62,275.807 2072.45,336.14 2061.5,396.5C 2031.59,396.829 2001.76,396.495 1972,395.5C 1952.51,317.559 1933.35,239.559 1914.5,161.5 Z"/></g>
<g><path style="opacity:0.994" fill="#fafafa" d="M 2295.5,161.5 C 2317.5,161.5 2339.5,161.5 2361.5,161.5C 2361.5,239.833 2361.5,318.167 2361.5,396.5C 2339.5,396.5 2317.5,396.5 2295.5,396.5C 2295.5,318.167 2295.5,239.833 2295.5,161.5 Z"/></g>
</svg>
